<svg width="30" height="30" viewBox="0 0 500 500" fill="none" xmlns="http://www.w3.org/2000/svg">
<path fill-rule="evenodd" clip-rule="evenodd" d="M128.832 262.013C125.65 261.758 122.433 261.628 119.186 261.628C53.3614 261.628 6.53952e-06 314.989 0 380.814C-6.53952e-06 446.639 53.3614 500 119.186 500C185.011 500 238.372 446.639 238.372 380.814C238.372 375.761 238.058 370.782 237.447 365.894C181.084 361.381 135.78 317.655 128.832 262.013Z" fill="#5D00F5"/>
<path fill-rule="evenodd" clip-rule="evenodd" d="M238.372 119.186C238.372 53.3614 185.011 6.53952e-06 119.186 0C53.3614 -6.53952e-06 6.53952e-06 53.3614 0 119.186C-6.53952e-06 185.011 53.3614 238.372 119.186 238.372C122.234 238.372 125.255 238.258 128.246 238.033C132.651 179.431 179.431 132.651 238.033 128.246C238.258 125.256 238.372 122.234 238.372 119.186Z" fill="#EB236B"/>
<path fill-rule="evenodd" clip-rule="evenodd" d="M365.895 237.447C370.782 238.058 375.762 238.372 380.815 238.372C446.64 238.372 500.001 185.011 500.001 119.186C500.001 53.3614 446.64 1.22941e-05 380.815 0C314.99 -1.22941e-05 261.629 53.3614 261.629 119.186C261.629 122.433 261.759 125.65 262.014 128.832C317.655 135.781 361.381 181.085 365.895 237.447Z" fill="#4BD0A0"/>
<path fill-rule="evenodd" clip-rule="evenodd" d="M262.633 365.276C261.97 370.361 261.629 375.548 261.629 380.814C261.629 446.639 314.99 500 380.815 500C446.64 500 500.001 446.639 500.001 380.814C500.001 314.989 446.64 261.628 380.815 261.628C375.548 261.628 370.362 261.97 365.276 262.632C358.324 316.029 316.029 358.323 262.633 365.276Z" fill="#0066FF"/>
</svg>
